<svg width="32" height="33" viewBox="0 0 32 33" fill="none" xmlns="http://www.w3.org/2000/svg">
  <path
    d="M12.8889 19.3044C12.4593 19.3044 12.1111 19.63 12.1111 20.0317C12.1111 20.4334 12.4593 20.759 12.8889 20.759H16.7778C17.2073 20.759 17.5556 20.4334 17.5556 20.0317C17.5556 19.63 17.2073 19.3044 16.7778 19.3044H12.8889Z"
    fill="white" />
  <path fill-rule="evenodd" clip-rule="evenodd"
    d="M9 9.70455C9 8.90122 9.69645 8.25 10.5556 8.25H21.4444C22.3036 8.25 23 8.90122 23 9.70455V22.7955C23 23.5988 22.3036 24.25 21.4444 24.25H10.5556C9.69645 24.25 9 23.5988 9 22.7955V9.70455ZM10.5556 9.70455H12.1111V14.7955C12.1111 15.0818 12.2909 15.3416 12.5703 15.4589C12.8497 15.5762 13.1767 15.5293 13.4056 15.339L14.6389 14.314L15.8722 15.339C16.1011 15.5293 16.4281 15.5762 16.7075 15.4589C16.9869 15.3416 17.1667 15.0818 17.1667 14.7955V9.70455H21.4444V22.7955H10.5556V9.70455ZM13.6667 9.70455H15.6111V13.1759L15.1556 12.7973C14.8609 12.5524 14.4169 12.5524 14.1222 12.7973L13.6667 13.1759V9.70455Z"
    fill="white" />
</svg>
