<svg id="Layer_1" data-name="Layer 1" xmlns="http://www.w3.org/2000/svg" viewBox="0 0 841.89 595.28"><defs><style>.cls-2{fill:#fff}</style></defs><path class="cls-2" d="M396.76 375c-.11-.28-.21-.54-.31-.82a105.28 105.28 0 0 1-13.31-2.86 134.09 134.09 0 0 0 5.28 13.12c4.43.92 9 1.64 13.64 2.16a107.65 107.65 0 0 1-5.3-11.6Zm180.37-119.67C575.37 170 504.08 99.64 415.39 102.62a156.21 156.21 0 1 0 161.74 152.71Zm-85.85-123A143.62 143.62 0 0 1 530.2 164c-7.92 8.11-46.61 25.39-60.64 27.06-4.83-26.28-10.11-52.27-25.93-75.13a142.34 142.34 0 0 1 47.65 16.43ZM463 258.89h-84.08a447.43 447.43 0 0 1 3.55-56.46 189.26 189.26 0 0 0 77.26 2.62 448.57 448.57 0 0 1 3.27 53.84Zm-51.74-140.38c6.6-6 13.39-5.85 19.78.37a53.19 53.19 0 0 1 10.06 14.67c6.63 13.45 10.71 27.75 13.8 42.34 1.23 5.82 2.26 11.69 3.41 17.7a177 177 0 0 1-74.21-2.69c3.59-20.44 8.09-40.41 17.49-58.91a46.28 46.28 0 0 1 9.67-13.48Zm-13-2.69c-15.16 21.87-20.56 46.72-25.39 71.93-20.48-6.47-39.32-16.09-57.31-28.16 22.8-23.59 50.08-38.26 82.71-43.77Zm-90.71 53.06c10.41 5.85 20.38 11.74 30.59 17.15a178.92 178.92 0 0 0 31.17 12.7c1.42.43 1.93 1 1.72 2.52a433.07 433.07 0 0 0-3.65 56.56c0 .33 0 .64-.07 1.09h-91.1c.34-33.77 10.79-63.85 31.35-90.02ZM535.59 347a184.59 184.59 0 0 0-29.8-17.39 187 187 0 0 0-24.58-9.44 39.29 39.29 0 0 1 11.38 9.95 19.74 19.74 0 0 1 3.77 7.85c4.11 1.79 8.16 3.71 12.13 5.83a166.49 166.49 0 0 1 19.7 12.11 158.45 158.45 0 0 1-19.76 18A149.37 149.37 0 0 1 495 383a18.54 18.54 0 0 1-2.27 3.7c-6.51 8.27-15.34 12.94-24.84 16.5-18.28 6.82-37.3 8.58-56.63 7.46-14.62-.88-28.95-3.43-42.34-9.62a88.61 88.61 0 0 1-12-6.91 26.34 26.34 0 0 1-9.73-11 142.62 142.62 0 0 1-13.71-9.26 157.93 157.93 0 0 1-15.24-13.25c5-3.42 10-6.67 15.18-9.69 4-2.35 8-4.55 12.11-6.65-1-5 .54-10.16 4.58-15.08-3.4 1.51-6.77 3.18-10.07 5-2.08 1.13-4.15 2.29-6.2 3.46-7.88 4.48-15.68 9.2-23.65 13.84-14-10.56-33.66-57.92-33.26-80.86h90.15c.87 10.78 1.74 21.5 2.6 32.28.32 4.05.65 8.1 1 12.18 1.28-.54 2.59-1 3.91-1.51 2.46-.91 4.93-1.72 7.43-2.45-.47-3.89-.89-7.77-1.23-11.64-.89-9.58-1.41-19.15-1.64-28.83h84c-.69 9.62-1.4 19.16-2.12 28.78-.27 3.87-.57 7.75-.86 11.65a93.74 93.74 0 0 1 11.2 4q.47-6.12.94-12.19c.81-10.8 1.63-21.53 2.46-32.34h90.39A144.38 144.38 0 0 1 535.59 347Zm29.83-88.1h-90.37c-1.11-18.69-2.23-37.38-3.36-56.34a199.69 199.69 0 0 0 34.1-11.56 191.54 191.54 0 0 0 31.65-17.63c15.06 15.15 30.99 63.83 27.98 85.52ZM442.68 380.68c-.91 2-1.85 4-2.89 5.87 4.64-.52 9.22-1.24 13.69-2.16 2-4.3 3.73-8.7 5.28-13.14a116.88 116.88 0 0 1-13.34 2.9c-.85 2.19-1.77 4.37-2.74 6.53Zm-46.23-6.55a105.28 105.28 0 0 1-13.31-2.86 134.09 134.09 0 0 0 5.28 13.12c4.43.92 9 1.64 13.64 2.16a107.65 107.65 0 0 1-5.3-11.6c-.11-.28-.21-.54-.31-.82Zm.31.82c-.11-.28-.21-.54-.31-.82a105.28 105.28 0 0 1-13.31-2.86 134.09 134.09 0 0 0 5.28 13.12c4.43.92 9 1.64 13.64 2.16a107.65 107.65 0 0 1-5.3-11.55Z" id="m7EZJz"/><path class="cls-2" d="M422.3 376a182.38 182.38 0 0 1-25.85-1.91c.1.28.2.54.31.82a107.65 107.65 0 0 0 5.3 11.6 170 170 0 0 0 37.73 0c1-1.91 2-3.87 2.89-5.87 1-2.16 1.89-4.34 2.74-6.53A164.38 164.38 0 0 1 422.3 376Zm23.12-1.89c-.85 2.19-1.77 4.37-2.74 6.53-.91 2-1.85 4-2.89 5.87 4.64-.52 9.22-1.24 13.69-2.16 2-4.3 3.73-8.7 5.28-13.14a116.88 116.88 0 0 1-13.34 2.94Zm63.07-31a31.92 31.92 0 0 0-2.7-13.53A35.34 35.34 0 0 0 498.3 319c-7.4-7.45-16.36-12.45-26-16-1.38-.5-2.77-1-4.17-1.42q-3.54-1.12-7.11-2.07c-26.17-7-52.6-6.84-79.12-.24-.38.08-.76.19-1.14.29a110.92 110.92 0 0 0-11.08 3.44 73.2 73.2 0 0 0-25.12 15.13 33.17 33.17 0 0 0-10.72 19.61 37.83 37.83 0 0 0-.43 5.92v7.38c0 7.64.06 15.3.06 22.94v14.29q0 28-.07 56a32 32 0 0 0 8.94 22.53c7.52 8.14 16.87 13.46 27.13 17.1 32.3 11.41 65 11.69 97.72 1.83 11.9-3.54 22.89-9.1 31.71-18.2 6.27-6.51 9.62-14.14 9.5-23.38-.15-16.81 0-33.65 0-50.46v-19.71c0-10 0-20.1.06-30.12Zm-17.81 116.15a59 59 0 0 1-24.52 14.54c-31.75 10.19-63.43 10.07-94.74-1.67a60.63 60.63 0 0 1-14.53-8.08c-12.23-9.1-12.3-14.81-11.22-28.74 33.43 29.42 116.21 30.15 150.79-.08.76 8.91.97 17.21-5.78 24.03Zm-5.2-30.34c-10.94 7.87-23.28 12.18-36.34 14.49-25.48 4.48-50.71 3.71-75.29-5.3a88.7 88.7 0 0 1-14.85-7.49c-11.3-6.77-16-16.72-13.21-30.14 22.31 17.29 48.19 22.12 75.35 22.09s53-4.88 75.16-22.16c2.16 11.89-.95 21.44-10.82 28.51Zm7.23-42.18c-6.51 8.27-15.34 12.94-24.84 16.5-18.28 6.82-37.3 8.58-56.63 7.46-14.62-.88-28.95-3.43-42.34-9.62a88.61 88.61 0 0 1-12-6.91 26.34 26.34 0 0 1-9.73-11c-2.32-5.09-2.72-11-1.33-17.67 10.43 9.07 25.58 15.37 42.56 18.86 4.43.92 9 1.64 13.64 2.16a170 170 0 0 0 37.73 0c4.64-.52 9.22-1.24 13.69-2.16 16.93-3.5 32.21-9.84 43-19.13.28 6.32 1 12.29-1.53 17.78a18.54 18.54 0 0 1-2.22 3.73Zm-.16-34.74c-4.43 5.78-10.35 9.74-16.77 12.85a102.18 102.18 0 0 1-17 6.39 116.88 116.88 0 0 1-13.34 2.9A164.38 164.38 0 0 1 422.3 376a182.38 182.38 0 0 1-25.85-1.91 105.28 105.28 0 0 1-13.31-2.86 90.73 90.73 0 0 1-13.56-5 72.41 72.41 0 0 1-17.45-11.38c-3.68-3.28-5.86-6.84-6.6-10.52-1-5 .54-10.16 4.58-15.08.4-.5.84-1 1.3-1.51 5.39-5.83 12.06-9.67 19.23-12.62 1.28-.54 2.59-1 3.91-1.51 2.46-.91 4.93-1.72 7.43-2.45 14.5-4.26 29.47-5.58 44.68-5a135.86 135.86 0 0 1 33.49 5 93.74 93.74 0 0 1 11.2 4c1.61.68 3.21 1.41 4.79 2.21 1.74.87 3.44 1.77 5.07 2.78a39.29 39.29 0 0 1 11.38 9.95 19.74 19.74 0 0 1 3.77 7.85c1.02 4.7-.25 9.4-3.81 14.05Zm-47.13 22.14c-.85 2.19-1.77 4.37-2.74 6.53-.91 2-1.85 4-2.89 5.87 4.64-.52 9.22-1.24 13.69-2.16 2-4.3 3.73-8.7 5.28-13.14a116.88 116.88 0 0 1-13.34 2.91Z"/><path class="cls-2" d="m429.72 364.08-12.09-15.26a11 11 0 0 0-2.06-2.16 6.75 6.75 0 0 0-2.32-1.16 11.78 11.78 0 0 0-3-.34h-10.17l.22-5.32 13.68.05c3.3 0 5.76-.56 7.36-1.7a6.19 6.19 0 0 0 2.62-4.77l1.19.56-24.61-.1.16-4.05 24.14.11-1.21.69a6 6 0 0 0-3.07-3.79 14.07 14.07 0 0 0-6.58-1.3l-13.1-.07.15-3.73 35.66.2.52 3.72-11.6-.06 1-.71a9.42 9.42 0 0 1 3.48 2.46 8.42 8.42 0 0 1 1.84 3.65l-1.64-1h7.54l.56 4h-7.48l1.34-1.26A9.17 9.17 0 0 1 431 339a11.27 11.27 0 0 1-5.37 4.29 23.22 23.22 0 0 1-9 1.53v-.61h2a13.53 13.53 0 0 1 5.57 1.09 13.93 13.93 0 0 1 4.72 3.88l12.7 14.92Z"/></svg>