<svg xmlns="http://www.w3.org/2000/svg" viewBox="0 0 127 127" xmlns:v="https://vecta.io/nano"><circle cx="63.5" cy="63.5" r="63.5" fill="#4e85e8"/><path d="M83.4 46.7l-2 7.2H43.6l2-7.2h37.8zM65.7 95.4L44.3 67.5l-.1-5.2h10.6c2.8 0 5.1-.4 7.1-1.2 1.9-.9 3.4-2.1 4.5-3.8 1-1.7 1.5-3.8 1.5-6.4 0-3.8-1.1-6.8-3.2-8.9-2.1-2.2-5.4-3.3-9.9-3.3H43.6l2-7h9.2c4.8 0 8.7.8 11.7 2.5 3.1 1.7 5.3 3.9 6.8 6.9 1.5 2.9 2.2 6.2 2.2 9.8 0 3.3-.7 6.3-2 9.1S70 65 67 66.7s-6.9 2.5-11.7 2.5H55L74.8 95v.5h-9.1zm17.7-63.8l-2 7.2-29.8-.2 2-7h29.8z" fill="#fdfdfd"/></svg>