<svg width="32" height="32" viewBox="0 0 32 32" fill="none" xmlns="http://www.w3.org/2000/svg">
<mask id="path-1-inside-1_3031_78822" fill="white">
<path d="M7 10.8333C7 10.0819 7.28597 9.36122 7.795 8.82986C8.30402 8.29851 8.99441 8 9.71429 8H23.2857C24.0056 8 24.696 8.29851 25.205 8.82986C25.714 9.36122 26 10.0819 26 10.8333V17.9167C26.0002 18.4586 25.8514 18.9892 25.5714 19.4456C25.2914 19.902 24.8919 20.2649 24.4203 20.4915C24.3235 20.2937 24.1976 20.113 24.0471 19.956L18.6185 14.2893C18.3338 13.992 17.9711 13.7894 17.5761 13.7073C17.1812 13.6252 16.7718 13.6673 16.3997 13.8281C16.0277 13.9889 15.7097 14.2613 15.4859 14.6108C15.2622 14.9604 15.1428 15.3713 15.1429 15.7917V20.75H9.71429C8.99441 20.75 8.30402 20.4515 7.795 19.9201C7.28597 19.3888 7 18.6681 7 17.9167V10.8333ZM16.5 24.2917C16.5 24.4403 16.5448 24.5852 16.6281 24.7058C16.7114 24.8264 16.8289 24.9166 16.964 24.9636C17.0991 25.0107 17.245 25.0121 17.3809 24.9678C17.5168 24.9235 17.636 24.8356 17.7214 24.7167L19.5536 22.1667H22.6071C22.7413 22.1666 22.8725 22.1251 22.9841 22.0472C23.0956 21.9694 23.1826 21.8588 23.2339 21.7294C23.2853 21.6 23.2987 21.4576 23.2725 21.3202C23.2464 21.1828 23.1818 21.0566 23.0869 20.9575L17.6583 15.2909C17.5634 15.1918 17.4425 15.1244 17.3109 15.0971C17.1793 15.0698 17.0429 15.0838 16.9189 15.1374C16.7949 15.191 16.689 15.2818 16.6144 15.3982C16.5398 15.5147 16.5 15.6516 16.5 15.7917V24.2917Z"/>
</mask>
<path d="M7 10.8333C7 10.0819 7.28597 9.36122 7.795 8.82986C8.30402 8.29851 8.99441 8 9.71429 8H23.2857C24.0056 8 24.696 8.29851 25.205 8.82986C25.714 9.36122 26 10.0819 26 10.8333V17.9167C26.0002 18.4586 25.8514 18.9892 25.5714 19.4456C25.2914 19.902 24.8919 20.2649 24.4203 20.4915C24.3235 20.2937 24.1976 20.113 24.0471 19.956L18.6185 14.2893C18.3338 13.992 17.9711 13.7894 17.5761 13.7073C17.1812 13.6252 16.7718 13.6673 16.3997 13.8281C16.0277 13.9889 15.7097 14.2613 15.4859 14.6108C15.2622 14.9604 15.1428 15.3713 15.1429 15.7917V20.75H9.71429C8.99441 20.75 8.30402 20.4515 7.795 19.9201C7.28597 19.3888 7 18.6681 7 17.9167V10.8333ZM16.5 24.2917C16.5 24.4403 16.5448 24.5852 16.6281 24.7058C16.7114 24.8264 16.8289 24.9166 16.964 24.9636C17.0991 25.0107 17.245 25.0121 17.3809 24.9678C17.5168 24.9235 17.636 24.8356 17.7214 24.7167L19.5536 22.1667H22.6071C22.7413 22.1666 22.8725 22.1251 22.9841 22.0472C23.0956 21.9694 23.1826 21.8588 23.2339 21.7294C23.2853 21.6 23.2987 21.4576 23.2725 21.3202C23.2464 21.1828 23.1818 21.0566 23.0869 20.9575L17.6583 15.2909C17.5634 15.1918 17.4425 15.1244 17.3109 15.0971C17.1793 15.0698 17.0429 15.0838 16.9189 15.1374C16.7949 15.191 16.689 15.2818 16.6144 15.3982C16.5398 15.5147 16.5 15.6516 16.5 15.7917V24.2917Z" stroke="white" stroke-width="2.6" mask="url(#path-1-inside-1_3031_78822)"/>
</svg>
