<svg width="26" height="27" viewBox="0 0 26 27" fill="none" xmlns="http://www.w3.org/2000/svg">
<path fill-rule="evenodd" clip-rule="evenodd" d="M17.6882 22.0828C19.8279 22.0828 21.5625 20.3482 21.5625 18.2085C21.5625 16.0687 19.8279 14.3341 17.6882 14.3341C15.5484 14.3341 13.8138 16.0687 13.8138 18.2085C13.8138 20.3482 15.5484 22.0828 17.6882 22.0828ZM17.6882 23.5203C20.6218 23.5203 23 21.1421 23 18.2085C23 15.2748 20.6218 12.8966 17.6882 12.8966C14.7545 12.8966 12.3763 15.2748 12.3763 18.2085C12.3763 21.1421 14.7545 23.5203 17.6882 23.5203Z" fill="white"/>
<path d="M16.1292 18.4534V18.0024H18.3455V18.4534H16.1292ZM17.3624 17.3566V18.871C17.3624 19.0529 17.3411 19.2032 17.2984 19.322C17.2558 19.4371 17.1821 19.5336 17.0774 19.6115C16.9765 19.6858 16.8369 19.7489 16.6585 19.8008L16.6644 19.6338H19.2006V20.2129H16.1292V19.7285C16.3115 19.6431 16.4375 19.5466 16.5073 19.4389C16.581 19.3276 16.6178 19.1791 16.6178 18.9935V17.3064C16.6178 17.0837 16.6702 16.8889 16.7749 16.7218C16.8796 16.5548 17.027 16.4267 17.217 16.3376C17.407 16.2486 17.6281 16.204 17.8801 16.204C18.1439 16.204 18.3921 16.243 18.6247 16.3209C18.8574 16.3989 19.0649 16.514 19.2472 16.6661L18.9912 17.1895C18.8128 17.0522 18.6325 16.9482 18.4502 16.8777C18.2718 16.8072 18.1012 16.7719 17.9383 16.7719C17.7483 16.7719 17.6048 16.822 17.5078 16.9223C17.4109 17.0188 17.3624 17.1635 17.3624 17.3566Z" fill="white"/>
<mask id="mask0_1_17" style="mask-type:alpha" maskUnits="userSpaceOnUse" x="4" y="4" width="18" height="18">
<path fill-rule="evenodd" clip-rule="evenodd" d="M12.8966 5.61757C8.87652 5.61757 5.61757 8.87652 5.61757 12.8966C5.61757 16.9168 8.87652 20.1757 12.8966 20.1757C16.9168 20.1757 20.1757 16.9168 20.1757 12.8966C20.1757 8.87652 16.9168 5.61757 12.8966 5.61757ZM4 12.8966C4 7.98316 7.98316 4 12.8966 4C17.8101 4 21.7933 7.98316 21.7933 12.8966C21.7933 17.8101 17.8101 21.7933 12.8966 21.7933C7.98316 21.7933 4 17.8101 4 12.8966Z" fill="#3281FF"/>
<path fill-rule="evenodd" clip-rule="evenodd" d="M4 12.8967C4 12.45 4.36211 12.0879 4.80879 12.0879H20.9845C21.4312 12.0879 21.7933 12.45 21.7933 12.8967C21.7933 13.3434 21.4312 13.7055 20.9845 13.7055H4.80879C4.36211 13.7055 4 13.3434 4 12.8967Z" fill="#3281FF"/>
<path fill-rule="evenodd" clip-rule="evenodd" d="M10.4705 12.8966C10.5259 15.3835 11.3812 17.7778 12.8967 19.7302C14.4121 17.7778 15.2674 15.3835 15.3228 12.8966C15.2674 10.4097 14.4121 8.01548 12.8967 6.06303C11.3812 8.01548 10.5259 10.4097 10.4705 12.8966ZM12.8967 4.80877L12.2995 4.26331C10.1443 6.6228 8.91946 9.68482 8.8529 12.8798C8.85266 12.891 8.85266 12.9022 8.8529 12.9135C8.91946 16.1084 10.1443 19.1705 12.2995 21.53C12.4527 21.6977 12.6694 21.7933 12.8967 21.7933C13.1239 21.7933 13.3406 21.6977 13.4938 21.53C15.649 19.1705 16.8738 16.1084 16.9404 12.9135C16.9406 12.9022 16.9406 12.891 16.9404 12.8798C16.8738 9.68482 15.649 6.6228 13.4938 4.26331L12.8967 4.80877Z" fill="#3281FF"/>
</mask>
<g mask="url(#mask0_1_17)">
<path fill-rule="evenodd" clip-rule="evenodd" d="M21.7109 14.0964C21.7651 13.6988 21.7932 13.293 21.7932 12.8806C21.7932 7.9579 17.8025 3.96729 12.8799 3.96729C7.9572 3.96729 3.96658 7.9579 3.96658 12.8806C3.96658 17.8032 7.9572 21.7939 12.8799 21.7939C12.9821 21.7939 13.0839 21.7921 13.1853 21.7887C12.4031 20.8062 11.9356 19.5619 11.9356 18.2085C11.9356 15.0314 14.5112 12.4559 17.6882 12.4559C19.254 12.4559 20.6737 13.0815 21.7109 14.0964Z" fill="white"/>
</g>
</svg>
