<svg width="202" height="202" fill="none" xmlns="http://www.w3.org/2000/svg" xmlns:xlink="http://www.w3.org/1999/xlink"><path fill="url(#a)" d="M0 0h201.706v201.706H0z"/><path fill-rule="evenodd" clip-rule="evenodd" d="M101.153 62.77c21.267.023 38.5 17.27 38.5 38.542 0 21.286-17.255 38.541-38.541 38.541-21.286 0-38.541-17.255-38.541-38.541 0-21.273 17.234-38.52 38.501-38.541m17.383 35.037a57.106 57.106 0 0 0-9.374-27.015c12.462 3.246 21.925 13.922 23.372 27.015h-13.998Zm-7.033 0a50.115 50.115 0 0 0-10.31-26.1 50.105 50.105 0 0 0-10.31 26.1h20.62Zm-20.62 7.008h20.62a50.115 50.115 0 0 1-10.31 26.1 50.107 50.107 0 0 1-10.31-26.1Zm-7.033-7.008H69.77c1.447-13.093 10.91-23.77 23.372-27.015a57.113 57.113 0 0 0-9.374 27.015Zm0 7.008a57.111 57.111 0 0 0 9.374 27.014c-12.462-3.245-21.925-13.921-23.372-27.014h13.998Zm25.312 27.014a57.114 57.114 0 0 0 9.374-27.014h13.998c-1.447 13.093-10.91 23.769-23.372 27.014Z" fill="#fff"/><defs><pattern id="a" patternContentUnits="objectBoundingBox" width="1" height="1"><use xlink:href="#b" transform="scale(.00151)"/></pattern></defs></svg>